<?xml version="1.0" encoding="UTF-8" standalone="no"?>
    <svg xmlns:dc="http://purl.org/dc/elements/1.1/" xmlns:cc="http://creativecommons.org/ns#" xmlns:rdf="http://www.w3.org/1999/02/22-rdf-syntax-ns#" xmlns:svg="http://www.w3.org/2000/svg" xmlns="http://www.w3.org/2000/svg" xmlns:sodipodi="http://sodipodi.sourceforge.net/DTD/sodipodi-0.dtd" xmlns:inkscape="http://www.inkscape.org/namespaces/inkscape" width="90" height="8" viewBox="0 0 90 8" version="1.1" id="svg1621" inkscape:version="1.0 (4035a4fb49, 2020-05-01)" sodipodi:docname="compass2.svg">
    <sodipodi:namedview inkscape:snap-global="false" id="base" pagecolor="#ffffff" bordercolor="#666666" borderopacity="1.0" inkscape:pageopacity="0.0" inkscape:pageshadow="2" inkscape:zoom="64" inkscape:cx="64.925085" inkscape:cy="8.2306866" inkscape:document-units="px" inkscape:current-layer="layer1" inkscape:document-rotation="0" showgrid="true" units="px" viewbox-height="40" inkscape:snap-grids="true" inkscape:snap-nodes="false" inkscape:snap-bbox="true" inkscape:bbox-paths="false" inkscape:bbox-nodes="true" inkscape:window-width="2880" inkscape:window-height="1586" inkscape:window-x="-11" inkscape:window-y="-11" inkscape:window-maximized="1">
        <inkscape:grid type="xygrid" id="grid2184" />
        <inkscape:grid spacingy="0.2" spacingx="0.2" id="grid2389" type="xygrid" />
    </sodipodi:namedview>
    <metadata id="metadata1618">
        <rdf:RDF>
            <cc:Work rdf:about="">
                <dc:format>image/svg+xml</dc:format>
                <dc:type rdf:resource="http://purl.org/dc/dcmitype/StillImage" />
            </cc:Work>
        </rdf:RDF>
    </metadata>
    <g inkscape:label="Layer 1" inkscape:groupmode="layer" id="layer1">
        <text x="45" y="1.8" style="font-weight:bold;font-size:2.4px;line-height:1.25;font-family:'Futura PT Cond';text-align:center;text-anchor:middle;fill:#000000;stroke:none;">0°</text>
        <text x="0" y="7.6" style="font-weight:bold;font-size:2.4px;line-height:1.25;font-family:'Futura PT Cond';text-align:center;text-anchor:middle;fill:#000000;stroke:none;">NW</text>
        <text x="15" y="7.6" style="font-size:2.4px;line-height:1.25;font-family:'Futura PT Cond';text-align:center;text-anchor:middle;fill:#000000;stroke:none;">330</text>
        <text x="30" y="7.6" style="font-size:2.4px;line-height:1.25;font-family:'Futura PT Cond';text-align:center;text-anchor:middle;fill:#000000;stroke:none;">345</text>
        <text x="45" y="7.6" style="font-weight:bold;font-size:2.4px;line-height:1.25;font-family:'Futura PT Cond';text-align:center;text-anchor:middle;fill:#000000;stroke:none;">N</text>
        <text x="60" y="7.6" style="font-size:2.4px;line-height:1.25;font-family:'Futura PT Cond';text-align:center;text-anchor:middle;fill:#000000;stroke:none;">15</text>
        <text x="75" y="7.6" style="font-size:2.4px;line-height:1.25;font-family:'Futura PT Cond';text-align:center;text-anchor:middle;fill:#000000;stroke:none;">30</text>
        <text x="90" y="7.6" style="font-weight:bold;font-size:2.4px;line-height:1.25;font-family:'Futura PT Cond';text-align:center;text-anchor:middle;fill:#000000;stroke:none;">NE</text>
        <text x="105" y="7.6" style="font-size:2.4px;line-height:1.25;font-family:'Futura PT Cond';text-align:center;text-anchor:middle;fill:#000000;stroke:none;">60</text>
        <text x="120" y="7.6" style="font-size:2.4px;line-height:1.25;font-family:'Futura PT Cond';text-align:center;text-anchor:middle;fill:#000000;stroke:none;">75</text>
        <text x="135" y="7.6" style="font-weight:bold;font-size:2.4px;line-height:1.25;font-family:'Futura PT Cond';text-align:center;text-anchor:middle;fill:#000000;stroke:none;">E</text>
        <text x="150" y="7.6" style="font-size:2.4px;line-height:1.25;font-family:'Futura PT Cond';text-align:center;text-anchor:middle;fill:#000000;stroke:none;">105</text>
        <text x="165" y="7.6" style="font-size:2.4px;line-height:1.25;font-family:'Futura PT Cond';text-align:center;text-anchor:middle;fill:#000000;stroke:none;">120</text>
        <text x="180" y="7.6" style="font-weight:bold;font-size:2.4px;line-height:1.25;font-family:'Futura PT Cond';text-align:center;text-anchor:middle;fill:#000000;stroke:none;">SE</text>
        <text x="195" y="7.6" style="font-size:2.4px;line-height:1.25;font-family:'Futura PT Cond';text-align:center;text-anchor:middle;fill:#000000;stroke:none;">150</text>
        <text x="210" y="7.6" style="font-size:2.4px;line-height:1.25;font-family:'Futura PT Cond';text-align:center;text-anchor:middle;fill:#000000;stroke:none;">165</text>
        <text x="225" y="7.6" style="font-weight:bold;font-size:2.4px;line-height:1.25;font-family:'Futura PT Cond';text-align:center;text-anchor:middle;fill:#000000;stroke:none;">S</text>
        <text x="240" y="7.6" style="font-size:2.4px;line-height:1.25;font-family:'Futura PT Cond';text-align:center;text-anchor:middle;fill:#000000;stroke:none;">195</text>
        <text x="255" y="7.6" style="font-size:2.4px;line-height:1.25;font-family:'Futura PT Cond';text-align:center;text-anchor:middle;fill:#000000;stroke:none;">210</text>
        <text x="270" y="7.6" style="font-weight:bold;font-size:2.4px;line-height:1.25;font-family:'Futura PT Cond';text-align:center;text-anchor:middle;fill:#000000;stroke:none;">SW</text>
        <text x="285" y="7.6" style="font-size:2.4px;line-height:1.25;font-family:'Futura PT Cond';text-align:center;text-anchor:middle;fill:#000000;stroke:none;">240</text>
        <text x="300" y="7.6" style="font-size:2.4px;line-height:1.25;font-family:'Futura PT Cond';text-align:center;text-anchor:middle;fill:#000000;stroke:none;">255</text>
        <text x="315" y="7.6" style="font-weight:bold;font-size:2.4px;line-height:1.25;font-family:'Futura PT Cond';text-align:center;text-anchor:middle;fill:#000000;stroke:none;">W</text>
        <text x="330" y="7.6" style="font-size:2.4px;line-height:1.25;font-family:'Futura PT Cond';text-align:center;text-anchor:middle;fill:#000000;stroke:none;">285</text>
        <text x="345" y="7.6" style="font-size:2.4px;line-height:1.25;font-family:'Futura PT Cond';text-align:center;text-anchor:middle;fill:#000000;stroke:none;">300</text>
        <text x="360" y="7.6" style="font-weight:bold;font-size:2.4px;line-height:1.25;font-family:'Futura PT Cond';text-align:center;text-anchor:middle;fill:#000000;stroke:none;">NW</text>
        <text x="375" y="7.6" style="font-size:2.4px;line-height:1.25;font-family:'Futura PT Cond';text-align:center;text-anchor:middle;fill:#000000;stroke:none;">330</text>
        <text x="390" y="7.6" style="font-size:2.4px;line-height:1.25;font-family:'Futura PT Cond';text-align:center;text-anchor:middle;fill:#000000;stroke:none;">345</text>
        <text x="405" y="7.6" style="font-weight:bold;font-size:2.4px;line-height:1.25;font-family:'Futura PT Cond';text-align:center;text-anchor:middle;fill:#000000;stroke:none;">N</text>
        <text x="420" y="7.6" style="font-size:2.4px;line-height:1.25;font-family:'Futura PT Cond';text-align:center;text-anchor:middle;fill:#000000;stroke:none;">15</text>
        <text x="435" y="7.6" style="font-size:2.4px;line-height:1.25;font-family:'Futura PT Cond';text-align:center;text-anchor:middle;fill:#000000;stroke:none;">30</text>
        <text x="450" y="7.6" style="font-weight:bold;font-size:2.4px;line-height:1.25;font-family:'Futura PT Cond';text-align:center;text-anchor:middle;fill:#000000;stroke:none;">NE</text>
        <g fill="#000000" stroke-width="0">
            <rect x="-0.2" y="2.4" width="0.4" height="3.2" />
            <rect x="4.8" y="3.2" width="0.4" height="1.6" />
            <rect x="9.8" y="3.2" height="1.6" width="0.4" />
            <rect x="14.8" y="2.8" height="2.4" width="0.4" />
            <rect x="19.8" y="3.2" height="1.6" width="0.4" />
            <rect x="24.8" y="3.2" width="0.4" height="1.6" />
            <rect x="29.8" y="2.8" width="0.4" height="2.4" />
            <rect x="34.8" y="3.2" width="0.4" height="1.6" />
            <rect x="39.8" y="3.2" height="1.6" width="0.4" />
            <rect x="44.6" y="2.2" width="0.8" height="3.6" />
            <rect x="49.8" y="3.2" height="1.6" width="0.4" />
            <rect x="54.8" y="3.2" width="0.4" height="1.6" />
            <rect x="59.8" y="2.8" width="0.4" height="2.4" />
            <rect x="69.8" y="3.2" height="1.6" width="0.4" />
            <rect x="64.8" y="3.2" width="0.4" height="1.6" />
            <rect x="74.8" y="2.8" height="2.4" width="0.4" />
            <rect x="79.8" y="3.2" height="1.6" width="0.4" />
            <rect x="84.8" y="3.2" width="0.4" height="1.6" />
            <rect x="89.8" y="2.4" width="0.4" height="3.2" />
            <rect x="94.8" y="3.2" width="0.4" height="1.6" />
            <rect x="99.8" y="3.2" height="1.6" width="0.4" />
            <rect x="104.8" y="2.8" height="2.4" width="0.4" />
            <rect x="109.8" y="3.2" height="1.6" width="0.4" />
            <rect x="114.8" y="3.2" width="0.4" height="1.6" />
            <rect x="119.8" y="2.8" width="0.4" height="2.4" />
            <rect x="124.8" y="3.2" width="0.4" height="1.6" />
            <rect x="129.8" y="3.2" height="1.6" width="0.4" />
            <rect x="134.6" y="2.2" height="3.6" width="0.8" />
            <rect x="139.8" y="3.2" width="0.4" height="1.6" />
            <rect x="144.8" y="3.2" height="1.6" width="0.4" />
            <rect x="149.8" y="2.8" height="2.4" width="0.4" />
            <rect x="154.8" y="3.2" height="1.6" width="0.4" />
            <rect x="159.8" y="3.2" width="0.4" height="1.6" />
            <rect x="164.8" y="2.8" width="0.4" height="2.4" />
            <rect x="174.8" y="3.2" height="1.6" width="0.4" />
            <rect x="179.8" y="2.4" height="3.2" width="0.4" />
            <rect x="184.8" y="3.2" height="1.6" width="0.4" />
            <rect x="169.8" y="3.2" width="0.4" height="1.6" />
            <rect x="189.8" y="3.2" width="0.4" height="1.6" />
            <rect x="194.8" y="2.8" width="0.4" height="2.4" />
            <rect x="199.8" y="3.2" width="0.4" height="1.6" />
            <rect x="204.8" y="3.2" height="1.6" width="0.4" />
            <rect x="209.8" y="2.8" height="2.4" width="0.4" />
            <rect x="214.8" y="3.2" height="1.6" width="0.4" />
            <rect x="219.8" y="3.2" width="0.4" height="1.6" />
            <rect x="224.6" y="2.2" width="0.8" height="3.6" />
            <rect x="229.8" y="3.2" height="1.6" width="0.4" />
            <rect x="234.8" y="3.2" width="0.4" height="1.6" />
            <rect x="239.8" y="2.8" width="0.4" height="2.4" />
            <rect x="244.8" y="3.2" width="0.4" height="1.6" />
            <rect x="249.8" y="3.2" height="1.6" width="0.4" />
            <rect x="254.8" y="2.8" height="2.4" width="0.4" />
            <rect x="259.8" y="3.2" height="1.6" width="0.4" />
            <rect x="264.8" y="3.2" width="0.4" height="1.6" />
            <rect x="269.8" y="2.4" width="0.4" height="3.2" />
            <rect x="274.8" y="3.2" width="0.4" height="1.6" />
            <rect x="279.8" y="3.2" height="1.6" width="0.4" />
            <rect x="284.8" y="2.8" height="2.4" width="0.4" />
            <rect x="289.8" y="3.2" height="1.6" width="0.4" />
            <rect x="294.8" y="3.2" width="0.4" height="1.6" />
            <rect x="299.8" y="2.8" width="0.4" height="2.4" />
            <rect x="399.8" y="3.2" width="0.4" height="1.6" />
            <rect x="349.8" y="3.2" width="0.4" height="1.6" />
            <rect x="369.8" y="3.2" width="0.4" height="1.6" />
            <rect x="374.8" y="2.8" width="0.4" height="2.4" />
            <rect x="379.8" y="3.2" width="0.4" height="1.6" />
            <rect x="304.8" y="3.2" width="0.4" height="1.6" />
            <rect x="309.8" y="3.2" height="1.6" width="0.4" />
            <rect x="314.6" y="2.2" height="3.6" width="0.8" />
            <rect x="319.8" y="3.2" width="0.4" height="1.6" />
            <rect x="324.8" y="3.2" height="1.6" width="0.4" />
            <rect x="329.8" y="2.8" height="2.4" width="0.4" />
            <rect x="334.8" y="3.2" height="1.6" width="0.4" />
            <rect x="339.8" y="3.2" width="0.4" height="1.6" />
            <rect x="344.8" y="2.8" width="0.4" height="2.4" />
            <rect x="354.8" y="3.2" height="1.6" width="0.4" />
            <rect x="359.8" y="2.4" height="3.2" width="0.4" />
            <rect x="364.8" y="3.2" height="1.6" width="0.4" />
            <rect x="384.8" y="3.2" height="1.6" width="0.4" />
            <rect x="389.8" y="2.8" height="2.4" width="0.4" />
            <rect x="394.8" y="3.2" height="1.6" width="0.4" />
            <rect x="404.6" y="2.2" width="0.8" height="3.6" />
            <rect x="409.8" y="3.2" width="0.4" height="1.6" />
            <rect x="414.8" y="3.2" height="1.6" width="0.4" />
            <rect x="419.8" y="2.8" height="2.4" width="0.4" />
            <rect x="424.8" y="3.2" height="1.6" width="0.4" />
            <rect x="429.8" y="3.2" width="0.4" height="1.6" />
            <rect x="434.8" y="2.8" width="0.4" height="2.4" />
            <rect x="439.8" y="3.2" width="0.4" height="1.6" />
            <rect x="444.8" y="3.2" height="1.6" width="0.4" />
            <rect x="449.8" y="2.4" height="3.2" width="0.4" />
            <circle cx="-1" cy="4" r=".2"/>
            <circle cx="1" cy="4" r=".2"/>
            <circle cx="2" cy="4" r=".2"/>
            <circle cx="3" cy="4" r=".2"/>
            <circle cx="4" cy="4" r=".2"/>
            <circle cx="6" cy="4" r=".2"/>
            <circle cx="7" cy="4" r=".2"/>
            <circle cx="8" cy="4" r=".2"/>
            <circle cx="9" cy="4" r=".2"/>
            <circle cx="11" cy="4" r=".2"/>
            <circle cx="12" cy="4" r=".2"/>
            <circle cx="13" cy="4" r=".2"/>
            <circle cx="14" cy="4" r=".2"/>
            <circle cx="16" cy="4" r=".2"/>
            <circle cx="17" cy="4" r=".2"/>
            <circle cx="18" cy="4" r=".2"/>
            <circle cx="19" cy="4" r=".2"/>
            <circle cx="21" cy="4" r=".2"/>
            <circle cx="22" cy="4" r=".2"/>
            <circle cx="23" cy="4" r=".2"/>
            <circle cx="24" cy="4" r=".2"/>
            <circle cx="26" cy="4" r=".2"/>
            <circle cx="27" cy="4" r=".2"/>
            <circle cx="28" cy="4" r=".2"/>
            <circle cx="29" cy="4" r=".2"/>
            <circle cx="31" cy="4" r=".2"/>
            <circle cx="32" cy="4" r=".2"/>
            <circle cx="33" cy="4" r=".2"/>
            <circle cx="34" cy="4" r=".2"/>
            <circle cx="36" cy="4" r=".2"/>
            <circle cx="37" cy="4" r=".2"/>
            <circle cx="38" cy="4" r=".2"/>
            <circle cx="39" cy="4" r=".2"/>
            <circle cx="41" cy="4" r=".2"/>
            <circle cx="42" cy="4" r=".2"/>
            <circle cx="43" cy="4" r=".2"/>
            <circle cx="44" cy="4" r=".2"/>
            <circle cx="46" cy="4" r=".2"/>
            <circle cx="47" cy="4" r=".2"/>
            <circle cx="48" cy="4" r=".2"/>
            <circle cx="49" cy="4" r=".2"/>
            <circle cx="51" cy="4" r=".2"/>
            <circle cx="52" cy="4" r=".2"/>
            <circle cx="53" cy="4" r=".2"/>
            <circle cx="54" cy="4" r=".2"/>
            <circle cx="56" cy="4" r=".2"/>
            <circle cx="57" cy="4" r=".2"/>
            <circle cx="58" cy="4" r=".2"/>
            <circle cx="59" cy="4" r=".2"/>
            <circle cx="61" cy="4" r=".2"/>
            <circle cx="62" cy="4" r=".2"/>
            <circle cx="63" cy="4" r=".2"/>
            <circle cx="64" cy="4" r=".2"/>
            <circle cx="66" cy="4" r=".2"/>
            <circle cx="67" cy="4" r=".2"/>
            <circle cx="68" cy="4" r=".2"/>
            <circle cx="69" cy="4" r=".2"/>
            <circle cx="71" cy="4" r=".2"/>
            <circle cx="72" cy="4" r=".2"/>
            <circle cx="73" cy="4" r=".2"/>
            <circle cx="74" cy="4" r=".2"/>
            <circle cx="76" cy="4" r=".2"/>
            <circle cx="77" cy="4" r=".2"/>
            <circle cx="78" cy="4" r=".2"/>
            <circle cx="79" cy="4" r=".2"/>
            <circle cx="81" cy="4" r=".2"/>
            <circle cx="82" cy="4" r=".2"/>
            <circle cx="83" cy="4" r=".2"/>
            <circle cx="84" cy="4" r=".2"/>
            <circle cx="86" cy="4" r=".2"/>
            <circle cx="87" cy="4" r=".2"/>
            <circle cx="88" cy="4" r=".2"/>
            <circle cx="89" cy="4" r=".2"/>
            <circle cx="91" cy="4" r=".2"/>
            <circle cx="92" cy="4" r=".2"/>
            <circle cx="93" cy="4" r=".2"/>
            <circle cx="94" cy="4" r=".2"/>
            <circle cx="96" cy="4" r=".2"/>
            <circle cx="97" cy="4" r=".2"/>
            <circle cx="98" cy="4" r=".2"/>
            <circle cx="99" cy="4" r=".2"/>
            <circle cx="101" cy="4" r=".2"/>
            <circle cx="102" cy="4" r=".2"/>
            <circle cx="103" cy="4" r=".2"/>
            <circle cx="104" cy="4" r=".2"/>
            <circle cx="106" cy="4" r=".2"/>
            <circle cx="107" cy="4" r=".2"/>
            <circle cx="108" cy="4" r=".2"/>
            <circle cx="109" cy="4" r=".2"/>
            <circle cx="111" cy="4" r=".2"/>
            <circle cx="112" cy="4" r=".2"/>
            <circle cx="113" cy="4" r=".2"/>
            <circle cx="114" cy="4" r=".2"/>
            <circle cx="116" cy="4" r=".2"/>
            <circle cx="117" cy="4" r=".2"/>
            <circle cx="118" cy="4" r=".2"/>
            <circle cx="119" cy="4" r=".2"/>
            <circle cx="121" cy="4" r=".2"/>
            <circle cx="122" cy="4" r=".2"/>
            <circle cx="123" cy="4" r=".2"/>
            <circle cx="124" cy="4" r=".2"/>
            <circle cx="126" cy="4" r=".2"/>
            <circle cx="127" cy="4" r=".2"/>
            <circle cx="128" cy="4" r=".2"/>
            <circle cx="129" cy="4" r=".2"/>
            <circle cx="131" cy="4" r=".2"/>
            <circle cx="132" cy="4" r=".2"/>
            <circle cx="133" cy="4" r=".2"/>
            <circle cx="134" cy="4" r=".2"/>
            <circle cx="136" cy="4" r=".2"/>
            <circle cx="137" cy="4" r=".2"/>
            <circle cx="138" cy="4" r=".2"/>
            <circle cx="139" cy="4" r=".2"/>
            <circle cx="141" cy="4" r=".2"/>
            <circle cx="142" cy="4" r=".2"/>
            <circle cx="143" cy="4" r=".2"/>
            <circle cx="144" cy="4" r=".2"/>
            <circle cx="146" cy="4" r=".2"/>
            <circle cx="147" cy="4" r=".2"/>
            <circle cx="148" cy="4" r=".2"/>
            <circle cx="149" cy="4" r=".2"/>
            <circle cx="151" cy="4" r=".2"/>
            <circle cx="152" cy="4" r=".2"/>
            <circle cx="153" cy="4" r=".2"/>
            <circle cx="154" cy="4" r=".2"/>
            <circle cx="156" cy="4" r=".2"/>
            <circle cx="157" cy="4" r=".2"/>
            <circle cx="158" cy="4" r=".2"/>
            <circle cx="159" cy="4" r=".2"/>
            <circle cx="161" cy="4" r=".2"/>
            <circle cx="162" cy="4" r=".2"/>
            <circle cx="163" cy="4" r=".2"/>
            <circle cx="164" cy="4" r=".2"/>
            <circle cx="166" cy="4" r=".2"/>
            <circle cx="167" cy="4" r=".2"/>
            <circle cx="168" cy="4" r=".2"/>
            <circle cx="169" cy="4" r=".2"/>
            <circle cx="171" cy="4" r=".2"/>
            <circle cx="172" cy="4" r=".2"/>
            <circle cx="173" cy="4" r=".2"/>
            <circle cx="174" cy="4" r=".2"/>
            <circle cx="176" cy="4" r=".2"/>
            <circle cx="177" cy="4" r=".2"/>
            <circle cx="178" cy="4" r=".2"/>
            <circle cx="179" cy="4" r=".2"/>
            <circle cx="181" cy="4" r=".2"/>
            <circle cx="182" cy="4" r=".2"/>
            <circle cx="183" cy="4" r=".2"/>
            <circle cx="184" cy="4" r=".2"/>
            <circle cx="186" cy="4" r=".2"/>
            <circle cx="187" cy="4" r=".2"/>
            <circle cx="188" cy="4" r=".2"/>
            <circle cx="189" cy="4" r=".2"/>
            <circle cx="191" cy="4" r=".2"/>
            <circle cx="192" cy="4" r=".2"/>
            <circle cx="193" cy="4" r=".2"/>
            <circle cx="194" cy="4" r=".2"/>
            <circle cx="196" cy="4" r=".2"/>
            <circle cx="197" cy="4" r=".2"/>
            <circle cx="198" cy="4" r=".2"/>
            <circle cx="199" cy="4" r=".2"/>
            <circle cx="201" cy="4" r=".2"/>
            <circle cx="202" cy="4" r=".2"/>
            <circle cx="203" cy="4" r=".2"/>
            <circle cx="204" cy="4" r=".2"/>
            <circle cx="206" cy="4" r=".2"/>
            <circle cx="207" cy="4" r=".2"/>
            <circle cx="208" cy="4" r=".2"/>
            <circle cx="209" cy="4" r=".2"/>
            <circle cx="211" cy="4" r=".2"/>
            <circle cx="212" cy="4" r=".2"/>
            <circle cx="213" cy="4" r=".2"/>
            <circle cx="214" cy="4" r=".2"/>
            <circle cx="216" cy="4" r=".2"/>
            <circle cx="217" cy="4" r=".2"/>
            <circle cx="218" cy="4" r=".2"/>
            <circle cx="219" cy="4" r=".2"/>
            <circle cx="221" cy="4" r=".2"/>
            <circle cx="222" cy="4" r=".2"/>
            <circle cx="223" cy="4" r=".2"/>
            <circle cx="224" cy="4" r=".2"/>
            <circle cx="226" cy="4" r=".2"/>
            <circle cx="227" cy="4" r=".2"/>
            <circle cx="228" cy="4" r=".2"/>
            <circle cx="229" cy="4" r=".2"/>
            <circle cx="231" cy="4" r=".2"/>
            <circle cx="232" cy="4" r=".2"/>
            <circle cx="233" cy="4" r=".2"/>
            <circle cx="234" cy="4" r=".2"/>
            <circle cx="236" cy="4" r=".2"/>
            <circle cx="237" cy="4" r=".2"/>
            <circle cx="238" cy="4" r=".2"/>
            <circle cx="239" cy="4" r=".2"/>
            <circle cx="241" cy="4" r=".2"/>
            <circle cx="242" cy="4" r=".2"/>
            <circle cx="243" cy="4" r=".2"/>
            <circle cx="244" cy="4" r=".2"/>
            <circle cx="246" cy="4" r=".2"/>
            <circle cx="247" cy="4" r=".2"/>
            <circle cx="248" cy="4" r=".2"/>
            <circle cx="249" cy="4" r=".2"/>
            <circle cx="251" cy="4" r=".2"/>
            <circle cx="252" cy="4" r=".2"/>
            <circle cx="253" cy="4" r=".2"/>
            <circle cx="254" cy="4" r=".2"/>
            <circle cx="256" cy="4" r=".2"/>
            <circle cx="257" cy="4" r=".2"/>
            <circle cx="258" cy="4" r=".2"/>
            <circle cx="259" cy="4" r=".2"/>
            <circle cx="261" cy="4" r=".2"/>
            <circle cx="262" cy="4" r=".2"/>
            <circle cx="263" cy="4" r=".2"/>
            <circle cx="264" cy="4" r=".2"/>
            <circle cx="266" cy="4" r=".2"/>
            <circle cx="267" cy="4" r=".2"/>
            <circle cx="268" cy="4" r=".2"/>
            <circle cx="269" cy="4" r=".2"/>
            <circle cx="271" cy="4" r=".2"/>
            <circle cx="272" cy="4" r=".2"/>
            <circle cx="273" cy="4" r=".2"/>
            <circle cx="274" cy="4" r=".2"/>
            <circle cx="276" cy="4" r=".2"/>
            <circle cx="277" cy="4" r=".2"/>
            <circle cx="278" cy="4" r=".2"/>
            <circle cx="279" cy="4" r=".2"/>
            <circle cx="281" cy="4" r=".2"/>
            <circle cx="282" cy="4" r=".2"/>
            <circle cx="283" cy="4" r=".2"/>
            <circle cx="284" cy="4" r=".2"/>
            <circle cx="286" cy="4" r=".2"/>
            <circle cx="287" cy="4" r=".2"/>
            <circle cx="288" cy="4" r=".2"/>
            <circle cx="289" cy="4" r=".2"/>
            <circle cx="291" cy="4" r=".2"/>
            <circle cx="292" cy="4" r=".2"/>
            <circle cx="293" cy="4" r=".2"/>
            <circle cx="294" cy="4" r=".2"/>
            <circle cx="296" cy="4" r=".2"/>
            <circle cx="297" cy="4" r=".2"/>
            <circle cx="298" cy="4" r=".2"/>
            <circle cx="299" cy="4" r=".2"/>
            <circle cx="301" cy="4" r=".2"/>
            <circle cx="302" cy="4" r=".2"/>
            <circle cx="303" cy="4" r=".2"/>
            <circle cx="304" cy="4" r=".2"/>
            <circle cx="306" cy="4" r=".2"/>
            <circle cx="307" cy="4" r=".2"/>
            <circle cx="308" cy="4" r=".2"/>
            <circle cx="309" cy="4" r=".2"/>
            <circle cx="311" cy="4" r=".2"/>
            <circle cx="312" cy="4" r=".2"/>
            <circle cx="313" cy="4" r=".2"/>
            <circle cx="314" cy="4" r=".2"/>
            <circle cx="316" cy="4" r=".2"/>
            <circle cx="317" cy="4" r=".2"/>
            <circle cx="318" cy="4" r=".2"/>
            <circle cx="319" cy="4" r=".2"/>
            <circle cx="321" cy="4" r=".2"/>
            <circle cx="322" cy="4" r=".2"/>
            <circle cx="323" cy="4" r=".2"/>
            <circle cx="324" cy="4" r=".2"/>
            <circle cx="326" cy="4" r=".2"/>
            <circle cx="327" cy="4" r=".2"/>
            <circle cx="328" cy="4" r=".2"/>
            <circle cx="329" cy="4" r=".2"/>
            <circle cx="331" cy="4" r=".2"/>
            <circle cx="332" cy="4" r=".2"/>
            <circle cx="333" cy="4" r=".2"/>
            <circle cx="334" cy="4" r=".2"/>
            <circle cx="336" cy="4" r=".2"/>
            <circle cx="337" cy="4" r=".2"/>
            <circle cx="338" cy="4" r=".2"/>
            <circle cx="339" cy="4" r=".2"/>
            <circle cx="341" cy="4" r=".2"/>
            <circle cx="342" cy="4" r=".2"/>
            <circle cx="343" cy="4" r=".2"/>
            <circle cx="344" cy="4" r=".2"/>
            <circle cx="346" cy="4" r=".2"/>
            <circle cx="347" cy="4" r=".2"/>
            <circle cx="348" cy="4" r=".2"/>
            <circle cx="349" cy="4" r=".2"/>
            <circle cx="351" cy="4" r=".2"/>
            <circle cx="352" cy="4" r=".2"/>
            <circle cx="353" cy="4" r=".2"/>
            <circle cx="354" cy="4" r=".2"/>
            <circle cx="356" cy="4" r=".2"/>
            <circle cx="357" cy="4" r=".2"/>
            <circle cx="358" cy="4" r=".2"/>
            <circle cx="359" cy="4" r=".2"/>
            <circle cx="361" cy="4" r=".2"/>
            <circle cx="362" cy="4" r=".2"/>
            <circle cx="363" cy="4" r=".2"/>
            <circle cx="364" cy="4" r=".2"/>
            <circle cx="366" cy="4" r=".2"/>
            <circle cx="367" cy="4" r=".2"/>
            <circle cx="368" cy="4" r=".2"/>
            <circle cx="369" cy="4" r=".2"/>
            <circle cx="371" cy="4" r=".2"/>
            <circle cx="372" cy="4" r=".2"/>
            <circle cx="373" cy="4" r=".2"/>
            <circle cx="374" cy="4" r=".2"/>
            <circle cx="376" cy="4" r=".2"/>
            <circle cx="377" cy="4" r=".2"/>
            <circle cx="378" cy="4" r=".2"/>
            <circle cx="379" cy="4" r=".2"/>
            <circle cx="381" cy="4" r=".2"/>
            <circle cx="382" cy="4" r=".2"/>
            <circle cx="383" cy="4" r=".2"/>
            <circle cx="384" cy="4" r=".2"/>
            <circle cx="386" cy="4" r=".2"/>
            <circle cx="387" cy="4" r=".2"/>
            <circle cx="388" cy="4" r=".2"/>
            <circle cx="389" cy="4" r=".2"/>
            <circle cx="391" cy="4" r=".2"/>
            <circle cx="392" cy="4" r=".2"/>
            <circle cx="393" cy="4" r=".2"/>
            <circle cx="394" cy="4" r=".2"/>
            <circle cx="396" cy="4" r=".2"/>
            <circle cx="397" cy="4" r=".2"/>
            <circle cx="398" cy="4" r=".2"/>
            <circle cx="399" cy="4" r=".2"/>
            <circle cx="401" cy="4" r=".2"/>
            <circle cx="402" cy="4" r=".2"/>
            <circle cx="403" cy="4" r=".2"/>
            <circle cx="404" cy="4" r=".2"/>
            <circle cx="406" cy="4" r=".2"/>
            <circle cx="407" cy="4" r=".2"/>
            <circle cx="408" cy="4" r=".2"/>
            <circle cx="409" cy="4" r=".2"/>
            <circle cx="411" cy="4" r=".2"/>
            <circle cx="412" cy="4" r=".2"/>
            <circle cx="413" cy="4" r=".2"/>
            <circle cx="414" cy="4" r=".2"/>
            <circle cx="416" cy="4" r=".2"/>
            <circle cx="417" cy="4" r=".2"/>
            <circle cx="418" cy="4" r=".2"/>
            <circle cx="419" cy="4" r=".2"/>
            <circle cx="421" cy="4" r=".2"/>
            <circle cx="422" cy="4" r=".2"/>
            <circle cx="423" cy="4" r=".2"/>
            <circle cx="424" cy="4" r=".2"/>
            <circle cx="426" cy="4" r=".2"/>
            <circle cx="427" cy="4" r=".2"/>
            <circle cx="428" cy="4" r=".2"/>
            <circle cx="429" cy="4" r=".2"/>
            <circle cx="431" cy="4" r=".2"/>
            <circle cx="432" cy="4" r=".2"/>
            <circle cx="433" cy="4" r=".2"/>
            <circle cx="434" cy="4" r=".2"/>
            <circle cx="436" cy="4" r=".2"/>
            <circle cx="437" cy="4" r=".2"/>
            <circle cx="438" cy="4" r=".2"/>
            <circle cx="439" cy="4" r=".2"/>
            <circle cx="441" cy="4" r=".2"/>
            <circle cx="442" cy="4" r=".2"/>
            <circle cx="443" cy="4" r=".2"/>
            <circle cx="444" cy="4" r=".2"/>
            <circle cx="446" cy="4" r=".2"/>
            <circle cx="447" cy="4" r=".2"/>
            <circle cx="448" cy="4" r=".2"/>
            <circle cx="449" cy="4" r=".2"/>
            <circle cx="451" cy="4" r=".2"/>
            <circle cx="452" cy="4" r=".2"/>
        </g>
    </g>
</svg>
