<?xml version="1.0" encoding="UTF-8" standalone="no"?>
<svg
   xmlns:dc="http://purl.org/dc/elements/1.1/"
   xmlns:cc="http://creativecommons.org/ns#"
   xmlns:rdf="http://www.w3.org/1999/02/22-rdf-syntax-ns#"
   xmlns:svg="http://www.w3.org/2000/svg"
   xmlns="http://www.w3.org/2000/svg"
   xmlns:xlink="http://www.w3.org/1999/xlink"
   xmlns:sodipodi="http://sodipodi.sourceforge.net/DTD/sodipodi-0.dtd"
   xmlns:inkscape="http://www.inkscape.org/namespaces/inkscape"
   viewBox="0 0 16 16"
   :width="size"
   :height="size"
   version="1.1"
   id="svg76"
   sodipodi:docname="cse-logo.svg"
   inkscape:version="1.0 (4035a4fb49, 2020-05-01)">
  <metadata
     id="metadata80">
    <rdf:RDF>
      <cc:Work
         rdf:about="">
        <dc:format>image/svg+xml</dc:format>
        <dc:type
           rdf:resource="http://purl.org/dc/dcmitype/StillImage" />
        <dc:title />
      </cc:Work>
    </rdf:RDF>
  </metadata>
  <sodipodi:namedview
     inkscape:document-rotation="0"
     pagecolor="#ffffff"
     bordercolor="#666666"
     borderopacity="1"
     objecttolerance="10"
     gridtolerance="10"
     guidetolerance="10"
     inkscape:pageopacity="0"
     inkscape:pageshadow="2"
     inkscape:window-width="2880"
     inkscape:window-height="1586"
     id="namedview78"
     showgrid="false"
     inkscape:zoom="76.5"
     inkscape:cx="8"
     inkscape:cy="8"
     inkscape:window-x="-11"
     inkscape:window-y="-11"
     inkscape:window-maximized="1"
     inkscape:current-layer="svg76" />
  <defs
     id="defs54">
    <linearGradient
       id="a"
       x1="958.09"
       x2="1246.88"
       y1="1016.74"
       y2="1016.74"
       gradientUnits="userSpaceOnUse">
      <stop
         offset="0"
         stop-color="#FFFFFF"
         stop-opacity="0"
         id="stop2" />
      <stop
         offset="1"
         stop-color="#FFFFFF"
         id="stop4" />
    </linearGradient>
    <linearGradient
       id="b"
       x1="755.98"
       x2="1124.66"
       y1="822.18"
       y2="822.18"
       gradientUnits="userSpaceOnUse">
      <stop
         offset="0"
         stop-color="#FFFFFF"
         id="stop7" />
      <stop
         offset="1"
         stop-color="#FFFFFF"
         stop-opacity="0"
         id="stop9" />
    </linearGradient>
    <linearGradient
       id="c"
       x1="750.1"
       x2="1062.77"
       y1="748.11"
       y2="748.11"
       gradientTransform="matrix(.03201 0 0 .03195 -24.01 -19.92)"
       gradientUnits="userSpaceOnUse"
       xlink:href="#b">
      <stop
         offset="0"
         stop-color="#FFFFFF"
         id="stop12" />
      <stop
         offset="1"
         stop-color="#FFFFFF"
         stop-opacity="0"
         id="stop14" />
    </linearGradient>
    <linearGradient
       id="d"
       x1="755.98"
       x2="1124.66"
       y1="822.18"
       y2="822.18"
       gradientTransform="matrix(.03201 0 0 .03195 -24.01 -19.92)"
       gradientUnits="userSpaceOnUse"
       xlink:href="#b" />
    <linearGradient
       id="e"
       x1="792.68"
       x2="1183.28"
       y1="896.81"
       y2="896.81"
       gradientTransform="matrix(.03201 0 0 .03195 -24.01 -19.92)"
       gradientUnits="userSpaceOnUse">
      <stop
         offset="0"
         stop-color="#FFFFFF"
         id="stop18" />
      <stop
         offset="1"
         stop-color="#FFFFFF"
         stop-opacity="0"
         id="stop20" />
    </linearGradient>
    <linearGradient
       id="f"
       x1="853.99"
       x2="1223.85"
       y1="962.13"
       y2="962.13"
       gradientTransform="matrix(.03201 0 0 .03195 -24.01 -19.92)"
       gradientUnits="userSpaceOnUse">
      <stop
         offset="0"
         stop-color="#FFFFFF"
         id="stop23" />
      <stop
         offset="1"
         stop-color="#FFFFFF"
         stop-opacity="0"
         id="stop25" />
    </linearGradient>
    <linearGradient
       id="g"
       x1="922.81"
       x2="1233.98"
       y1="1015.77"
       y2="1015.77"
       gradientTransform="matrix(.03201 0 0 .03195 -24.01 -19.92)"
       gradientUnits="userSpaceOnUse">
      <stop
         offset="0"
         stop-color="#FFFFFF"
         id="stop28" />
      <stop
         offset="1"
         stop-color="#FFFFFF"
         stop-opacity="0"
         id="stop30" />
    </linearGradient>
    <linearGradient
       id="h"
       x1="783.46"
       x2="1097.19"
       y1="735.26"
       y2="735.26"
       gradientTransform="matrix(.03201 0 0 .03195 -24.01 -19.92)"
       gradientUnits="userSpaceOnUse">
      <stop
         offset="0"
         stop-color="#FFFFFF"
         stop-opacity="0"
         id="stop33" />
      <stop
         offset="1"
         stop-color="#FFFFFF"
         id="stop35" />
    </linearGradient>
    <linearGradient
       id="i"
       x1="801.85"
       x2="1165.87"
       y1="793.09"
       y2="793.09"
       gradientTransform="matrix(.03201 0 0 .03195 -24.01 -19.92)"
       gradientUnits="userSpaceOnUse">
      <stop
         offset="0"
         stop-color="#FFFFFF"
         stop-opacity="0"
         id="stop38" />
      <stop
         offset="1"
         stop-color="#FFFFFF"
         id="stop40" />
    </linearGradient>
    <linearGradient
       id="j"
       x1="846.94"
       x2="1221.43"
       y1="864.98"
       y2="864.98"
       gradientTransform="matrix(.03201 0 0 .03195 -24.01 -19.92)"
       gradientUnits="userSpaceOnUse"
       spreadMethod="pad">
      <stop
         offset="0"
         stop-color="#FFFFFF"
         stop-opacity="0"
         id="stop43" />
      <stop
         offset="1"
         stop-color="#FFFFFF"
         id="stop45" />
    </linearGradient>
    <linearGradient
       id="k"
       x1="904.03"
       x2="1249.9"
       y1="942.52"
       y2="942.52"
       gradientTransform="matrix(.03201 0 0 .03195 -24.01 -19.92)"
       gradientUnits="userSpaceOnUse">
      <stop
         offset="0"
         stop-color="#FFFFFF"
         stop-opacity="0"
         id="stop48" />
      <stop
         offset="1"
         stop-color="#FFFFFF"
         id="stop50" />
    </linearGradient>
    <linearGradient
       id="l"
       x1="958.09"
       x2="1246.88"
       y1="1016.74"
       y2="1016.74"
       gradientTransform="matrix(.03201 0 0 .03195 -24.01 -19.92)"
       gradientUnits="userSpaceOnUse"
       xlink:href="#a" />
  </defs>
  <path
     fill="url(#c)"
     d="M0 7.54a8.04 8.02 0 01.15-1.18c.5-1.68 2.95-2.84 6.62-4.42C8.19 1.32 9.3.84 9.4.42a17.92 17.88 0 01.6.35c-.34.57-1.31 1.03-3 1.78-4.06 1.8-6.74 3.12-7 5"
     id="path56" />
  <path
     fill="url(#d)"
     d="M.56 10.97a8 7.98 0 01-.35-1.1C-.11 7.7 3.25 5.97 7.34 4.1c1.88-.86 3.37-1.58 3.97-2.38a31.44 31.38 0 01.68.6c-.68.81-1.73 1.45-4.51 2.74C3.64 6.84-.2 8.94.56 10.97"
     id="path58" />
  <path
     fill="url(#e)"
     d="M2.43 13.75a8.07 8.06 0 01-.76-.85c-.87-1.3-.16-2.75 6.17-5.8 2.93-1.42 4.5-2.29 5.43-3.37a27.98 27.93 0 01.6.8c-.96 1.09-2.4 1.99-6.19 3.85-4.47 2.2-6.76 3.79-5.25 5.38"
     id="path60" />
  <path
     fill="url(#f)"
     d="M4.97 15.4a17.57 17.54 0 01-.84-.4c-2.04-1.27 0-2.68 3.93-4.54 2.89-1.36 5.38-2.61 6.76-4.22a19.24 19.2 0 01.35.94c-1.12 1.31-2.75 2.33-6.7 4.16-3.2 1.48-5.87 2.9-3.5 4.06"
     id="path62" />
  <path
     fill="url(#g)"
     d="M7.69 16a17.6 17.6 0 01-.94-.1c-1.5-.3-1.62-.87-.35-1.68 2.94-1.88 6.66-2.39 9.09-5.15 0 .28 0 .65-.03.93-1.13 1.24-2.8 2.1-6.1 3.56-2 .89-5.03 2.23-1.67 2.44"
     id="path64" />
  <path
     fill="url(#h)"
     d="M9.57.13c1.9.41 2.04 1.14.45 2.16-2.84 1.82-6.28 2.57-8.87 4.85a15.94 15.91 0 01-.08-.94C2.4 5.07 3.8 4.36 7.3 2.8 8.65 2.19 12.71.37 8.58 0c.25.03.58.06.82.1.06 0 .11.02.17.03"
     id="path66" />
  <path
     fill="url(#i)"
     d="M12.67 1.47c1.8 1.44-.33 2.91-4.61 4.96-1.43.68-4.4 2.1-5.99 3.54a23.73 23.69 0 01-.41-.93C3 7.84 4.46 6.98 7.92 5.36 11.3 3.8 14.08 2.16 11.7.87a7.96 7.94 0 01.97.6"
     id="path68" />
  <path
     fill="url(#j)"
     d="M14.93 3.92c.61 1.35-.32 2.9-6.87 6.01-1.32.62-3.3 1.57-4.36 2.52a33.5 33.44 0 01-.6-.79c.54-.46 1.34-1.14 4.47-2.66 5.27-2.55 7.9-4.27 6.71-6.02a8.04 8.03 0 01.65.94"
     id="path70" />
  <path
     fill="url(#k)"
     d="M16 7.15c-.05 2.05-2.86 3.48-7.48 5.58-1.1.51-2.26 1.04-2.97 1.67a38.48 38.4 0 01-.62-.6c.72-.6 1.49-1.03 3.42-1.93 3.5-1.61 7.85-3.62 7.44-5.88A8.06 8.05 0 0116 7.15"
     id="path72" />
  <path
     fill="url(#l)"
     d="M15.6 10.62c-.58 1.2-2 2.11-5.84 3.72-1.69.71-2.39 1-2.62 1.3a19.1 19.06 0 01-.48-.33c.46-.44 1.04-.69 2.96-1.52 2.49-1.1 5.9-2.58 6.28-4.3a8 8 0 01-.3 1.13"
     id="path74" />
</svg>
