<?xml version="1.0" standalone="no"?>
<!DOCTYPE svg PUBLIC "-//W3C//DTD SVG 20010904//EN"
 "http://www.w3.org/TR/2001/REC-SVG-20010904/DTD/svg10.dtd">
<svg version="1.0" xmlns="http://www.w3.org/2000/svg"
 width="512.000000pt" height="512.000000pt" viewBox="0 0 512.000000 512.000000"
 preserveAspectRatio="xMidYMid meet">
<metadata>
Created by potrace 1.11, written by Peter Selinger 2001-2013
</metadata>
<g transform="translate(0.000000,512.000000) scale(0.100000,-0.100000)"
fill="#000000" stroke="none">
<path d="M2310 4779 c-512 -85 -948 -307 -1305 -664 -443 -443 -680 -1007
-679 -1620 0 -359 73 -666 231 -976 433 -854 1399 -1328 2368 -1163 139 23
139 25 17 50 -380 76 -722 264 -1017 559 -359 358 -593 819 -692 1365 -25 134
-27 166 -27 430 -1 230 2 306 17 395 79 478 267 874 562 1183 180 189 375 328
592 422 68 29 68 29 28 28 -22 0 -65 -4 -95 -9z"/>
<path d="M2715 4751 c-314 -65 -594 -226 -840 -482 -85 -88 -195 -225 -195
-242 0 -4 19 -4 43 0 69 13 464 9 562 -5 524 -75 986 -282 1332 -596 l61 -56
526 0 c370 0 526 3 526 11 0 19 -51 141 -101 241 -164 329 -388 582 -698 789
-375 252 -915 403 -1216 340z"/>
<path d="M1347 3238 c-33 -134 -52 -491 -34 -620 l8 -58 513 0 513 0 7 -902
c4 -545 11 -907 17 -914 17 -20 241 -131 342 -168 105 -39 268 -81 357 -91
l55 -7 -3 1041 -4 1041 841 0 841 0 0 350 0 350 -1724 0 -1724 0 -5 -22z"/>
</g>
</svg>
